<svg width="415" height="76" viewBox="0 0 415 76" fill="none" xmlns="http://www.w3.org/2000/svg">
<path d="M80.231 48.8351C80.5321 61.4767 53.8138 69.0767 38.2344 75.9242C38.2344 75.9242 69.6942 68.851 80.8331 58.9935C87.9078 52.748 87.1552 36.4193 68.7911 38.9777C68.6406 38.9777 68.189 39.6549 68.0385 39.6549C68.0385 39.6549 80.0805 40.5579 80.231 48.8351Z" fill="#F3F2F2"/>
<path d="M19.5705 25.2079C18.2158 24.8317 16.6353 24.3802 14.9042 24.004L14.3774 21.8218C14.3774 21.8218 49.1488 38.5267 86.4792 1.35445C87.2318 0.60198 87.8339 0 87.8339 0C87.8339 0 87.3823 2.10693 87.4576 2.03168C87.4576 2.03168 85.8771 3.1604 83.9202 5.79406C80.8345 10.0079 77.824 18.0594 82.8666 33.3347L81.2108 34.4634C81.2108 34.4634 80.0066 24.0792 74.6629 27.2396C71.7277 28.9703 70.1471 39.0535 70.1471 39.0535L67.7387 39.7307C67.7387 39.7307 75.8671 16.7802 62.3198 20.4673C50.2025 23.7782 44.4825 33.7861 40.5688 75.1723C40.5688 75.4733 38.2357 75.9248 38.2357 75.9248C38.2357 75.9248 41.6978 53.3505 31.462 53.8772C23.1079 54.2535 8.50688 75.3228 8.50688 75.3228H5.19531C5.27058 75.3228 44.7083 32.0554 19.5705 25.2079Z" fill="#F3F2F2"/>
<path d="M39.7409 23.1768C42.8266 23.1768 46.0629 20.3174 46.9661 16.7808C47.8693 13.2442 46.2135 10.3848 43.1277 10.3848C40.0419 10.3848 36.8056 13.2442 35.9025 16.7808C34.924 20.3174 36.6551 23.1768 39.7409 23.1768Z" fill="#F3F2F2"/>
<path d="M80.231 48.8351C80.5321 61.4767 53.8138 69.0767 38.2344 75.9242C38.2344 75.9242 69.6942 68.851 80.8331 58.9935C87.9078 52.748 87.1552 36.4193 68.7911 38.9777C68.6406 38.9777 68.189 39.6549 68.0385 39.6549C68.0385 39.6549 80.0805 40.5579 80.231 48.8351Z" fill="#F3F2F2"/>
<path d="M19.5705 25.2079C18.2158 24.8317 16.6353 24.3802 14.9042 24.004L14.3774 21.8218C14.3774 21.8218 49.1488 38.5267 86.4792 1.35445C87.2318 0.60198 87.7586 0 87.7586 0C87.7586 0 87.3071 2.10693 87.3823 2.03168C87.3823 2.03168 85.8018 3.1604 83.845 5.79406C80.7592 10.0079 77.7487 18.0594 82.7913 33.3347L81.1355 34.4634C81.1355 34.4634 79.9313 24.0792 74.5876 27.2396C71.6524 28.9703 70.0719 39.0535 70.0719 39.0535L67.7387 39.7307C67.7387 39.7307 75.8671 16.7802 62.3198 20.4673C50.2778 23.8535 44.5578 33.7861 40.5688 75.2475C40.5688 75.5485 38.2357 76 38.2357 76C38.2357 76 41.6978 53.4257 31.462 53.9525C23.1079 54.3287 8.50688 75.398 8.50688 75.398H5.19531C5.27058 75.3228 44.7083 32.0554 19.5705 25.2079Z" fill="#F3F2F2"/>
<path d="M39.7409 23.1768C42.8266 23.1768 46.0629 20.3174 46.9661 16.7808C47.8693 13.2442 46.2135 10.3848 43.1277 10.3848C40.0419 10.3848 36.8056 13.2442 35.9025 16.7808C34.924 20.3174 36.6551 23.1768 39.7409 23.1768Z" fill="#F3F2F2"/>
<path d="M71.5032 11.1369C73.8364 10.2339 75.4169 7.52504 75.0406 5.11712C74.6643 2.63395 72.4064 1.42999 70.0732 2.25771C67.7401 3.16068 66.1596 5.86959 66.5359 8.27751C66.9122 10.7607 69.0948 12.0399 71.5032 11.1369Z" fill="#F3F2F2"/>
<path d="M3.76386 73.6663C3.76386 74.7198 2.93581 75.5475 1.88193 75.5475C0.828049 75.5475 0 74.7198 0 73.6663C0 72.6129 0.828049 71.7852 1.88193 71.7852C2.93581 71.7852 3.76386 72.6129 3.76386 73.6663ZM0.225832 73.6663C0.225832 74.6446 0.978603 75.397 1.88193 75.397C2.86053 75.397 3.53803 74.6446 3.53803 73.6663C3.53803 72.6881 2.86053 71.9357 1.88193 71.9357C0.903326 71.9357 0.225832 72.6881 0.225832 73.6663ZM1.35499 73.5911H1.80665C2.10776 73.5911 2.48415 73.5911 2.48415 73.1396C2.48415 72.7634 2.18304 72.6881 1.95721 72.6881H1.35499V73.5911ZM1.20443 72.5376H2.03248C2.55942 72.5376 2.78525 72.7634 2.78525 73.1396C2.78525 73.5159 2.55942 73.6663 2.18304 73.7416L2.86053 74.7198H2.6347L1.95721 73.7416H1.35499V74.7198H1.20443V72.5376Z" fill="#F3F2F2"/>
<path d="M105.523 41.5367C105.824 41.612 106.125 41.612 106.577 41.612C107.856 41.612 108.985 41.0852 108.985 39.806C108.985 38.5268 107.856 38.0001 106.426 38.0001H105.448V41.5367H105.523ZM105.523 35.8931H106.426C107.931 35.8931 108.684 35.2912 108.684 34.3129C108.684 33.3347 107.931 32.8832 106.652 32.8832C106.05 32.8832 105.674 32.8832 105.448 32.9585V35.8931H105.523ZM102.738 31.1526C103.491 31.0021 104.921 30.8516 106.351 30.8516C108.082 30.8516 109.136 31.0021 110.039 31.5288C110.942 31.9803 111.544 32.8832 111.544 34.012C111.544 35.1407 110.867 36.1189 109.512 36.6456C110.942 37.0219 111.996 38.1506 111.996 39.7308C111.996 40.8595 111.469 41.7625 110.716 42.3644C109.813 43.1169 108.308 43.4931 105.824 43.4931C104.469 43.4931 103.416 43.4179 102.738 43.3427V31.1526Z" fill="#F3F2F2"/>
<path d="M114.475 34.3887H117.26V43.4936H114.475V34.3887ZM115.905 33.1847C114.926 33.1847 114.324 32.5075 114.324 31.6798C114.324 30.852 114.926 30.1748 115.905 30.1748C116.884 30.1748 117.486 30.852 117.486 31.6798C117.486 32.5075 116.884 33.1847 115.905 33.1847Z" fill="#F3F2F2"/>
<path d="M125.989 38.0759C125.989 37.9254 125.989 37.6997 125.914 37.5492C125.688 36.7967 125.161 36.27 124.408 36.27C123.355 36.27 122.527 37.1729 122.527 38.8284C122.527 40.1828 123.204 41.2363 124.333 41.2363C125.086 41.2363 125.613 40.7848 125.838 40.1076C125.914 39.8818 125.914 39.5809 125.914 39.3551V38.0759H125.989ZM128.774 42.2145C128.774 43.9452 128.397 45.3749 127.419 46.3531C126.441 47.1809 125.086 47.4818 123.731 47.4818C122.527 47.4818 121.323 47.2561 120.495 46.8046L121.022 44.6224C121.624 44.9234 122.602 45.2997 123.656 45.2997C125.011 45.2997 125.989 44.6224 125.989 42.8917V42.2898C125.462 43.0422 124.559 43.4937 123.581 43.4937C121.323 43.4937 119.742 41.6878 119.742 39.0541C119.742 36.1195 121.624 34.2383 123.882 34.2383C125.086 34.2383 125.914 34.765 126.365 35.5175L126.441 34.464H128.849C128.774 35.066 128.774 35.8185 128.774 37.1729V42.2145Z" fill="#F3F2F2"/>
<path d="M139.164 41.5367C139.465 41.612 139.766 41.612 140.217 41.612C141.497 41.612 142.626 41.0852 142.626 39.806C142.626 38.5268 141.497 38.0001 140.067 38.0001H139.164V41.5367ZM139.164 35.8931H140.067C141.572 35.8931 142.325 35.2912 142.325 34.3129C142.325 33.3347 141.572 32.8832 140.293 32.8832C139.69 32.8832 139.314 32.8832 139.088 32.9585V35.8931H139.164ZM136.379 31.1526C137.132 31.0021 138.562 30.8516 139.992 30.8516C141.723 30.8516 142.776 31.0021 143.679 31.5288C144.583 31.9803 145.185 32.8832 145.185 34.012C145.185 35.1407 144.507 36.1189 143.153 36.6456C144.583 37.0219 145.636 38.1506 145.636 39.7308C145.636 40.8595 145.109 41.7625 144.357 42.3644C143.454 43.1169 141.948 43.4931 139.465 43.4931C138.11 43.4931 137.056 43.4179 136.379 43.3427V31.1526Z" fill="#F3F2F2"/>
<path d="M148.118 37.3987C148.118 36.0442 148.118 35.1413 148.043 34.3888H150.452L150.527 36.1195H150.602C151.054 34.765 152.183 34.2383 153.011 34.2383C153.237 34.2383 153.388 34.2383 153.613 34.3135V36.9472C153.388 36.9472 153.162 36.8719 152.861 36.8719C151.807 36.8719 151.129 37.3987 150.904 38.3016C150.828 38.4521 150.828 38.6779 150.828 38.9036V43.4937H148.043L148.118 37.3987Z" fill="#F3F2F2"/>
<path d="M160.007 41.6869C161.136 41.6869 161.814 40.5581 161.814 38.978C161.814 37.6235 161.287 36.269 160.007 36.269C158.652 36.269 158.126 37.6235 158.126 38.978C158.126 40.4829 158.803 41.6869 160.007 41.6869ZM159.932 43.7185C157.298 43.7185 155.266 41.9879 155.266 38.978C155.266 36.0433 157.222 34.1621 160.082 34.1621C162.867 34.1621 164.673 36.1185 164.673 38.8275C164.749 42.2136 162.34 43.7185 159.932 43.7185Z" fill="#F3F2F2"/>
<path d="M170.25 31.9048V34.388H172.283V36.4949H170.25V39.8058C170.25 40.9345 170.551 41.386 171.38 41.386C171.756 41.386 171.982 41.386 172.208 41.3107V43.4929C171.831 43.6434 171.154 43.7186 170.401 43.7186C169.498 43.7186 168.745 43.4177 168.293 42.9662C167.766 42.4394 167.54 41.5365 167.54 40.2573V36.4949H166.336V34.388H167.54V32.6573L170.25 31.9048Z" fill="#F3F2F2"/>
<path d="M174.758 30.2495H177.543V35.4416C177.844 35.0654 178.22 34.6891 178.671 34.4634C179.123 34.2376 179.65 34.0871 180.101 34.0871C181.908 34.0871 183.263 35.3663 183.263 38.0753V43.4931H180.478V38.4515C180.478 37.2475 180.101 36.4198 179.048 36.4198C178.295 36.4198 177.844 36.8713 177.618 37.398C177.543 37.5485 177.543 37.7743 177.543 38V43.4931H174.758V30.2495Z" fill="#F3F2F2"/>
<path d="M191.7 37.9245C191.7 37.2473 191.399 36.0433 190.119 36.0433C188.915 36.0433 188.463 37.172 188.388 37.9245H191.7ZM188.388 39.8057C188.463 41.0096 189.592 41.5364 190.947 41.5364C191.925 41.5364 192.678 41.3859 193.431 41.1601L193.807 43.1166C192.904 43.4928 191.775 43.7185 190.571 43.7185C187.485 43.7185 185.754 41.9126 185.754 39.0532C185.754 36.7205 187.184 34.1621 190.345 34.1621C193.28 34.1621 194.409 36.4948 194.409 38.7522C194.409 39.2037 194.334 39.6552 194.334 39.8809L188.388 39.8057Z" fill="#F3F2F2"/>
<path d="M196.739 37.3987C196.739 36.0442 196.739 35.1413 196.664 34.3888H199.073L199.148 36.1195H199.223C199.675 34.765 200.804 34.2383 201.632 34.2383C201.858 34.2383 202.009 34.2383 202.235 34.3135V36.9472C202.009 36.9472 201.783 36.8719 201.482 36.8719C200.428 36.8719 199.75 37.3987 199.525 38.3016C199.525 38.4521 199.449 38.6779 199.449 38.9036V43.4937H196.664L196.739 37.3987Z" fill="#F3F2F2"/>
<path d="M204.487 41.0858C205.014 41.3868 206.068 41.763 206.896 41.763C207.724 41.763 208.1 41.462 208.1 41.0106C208.1 40.5591 207.799 40.3333 206.82 39.9571C204.938 39.3551 204.186 38.3016 204.261 37.2482C204.261 35.5175 205.691 34.2383 207.95 34.2383C209.003 34.2383 209.907 34.464 210.509 34.765L210.057 36.7214C209.681 36.4957 208.853 36.1947 208.1 36.1947C207.423 36.1947 207.046 36.4957 207.046 36.9472C207.046 37.3987 207.423 37.6244 208.477 38.0007C210.208 38.6026 210.885 39.5056 210.885 40.7848C210.885 42.5155 209.606 43.7195 206.971 43.7195C205.767 43.7195 204.713 43.4185 204.035 43.0422L204.487 41.0858Z" fill="#F3F2F2"/>
<path d="M220.597 41.5367C220.898 41.612 221.199 41.612 221.651 41.612C222.93 41.612 224.059 41.0852 224.059 39.806C224.059 38.5268 222.93 38.0001 221.5 38.0001H220.522V41.5367H220.597ZM220.597 35.8931H221.5C223.006 35.8931 223.758 35.2912 223.758 34.3129C223.758 33.3347 223.006 32.8832 221.726 32.8832C221.124 32.8832 220.748 32.8832 220.522 32.9585V35.8931H220.597ZM217.812 31.1526C218.565 31.0021 219.995 30.8516 221.425 30.8516C223.156 30.8516 224.21 31.0021 225.113 31.5288C226.016 31.9803 226.618 32.8832 226.618 34.012C226.618 35.1407 225.941 36.1189 224.586 36.6456C226.016 37.0219 227.07 38.1506 227.07 39.7308C227.07 40.8595 226.543 41.7625 225.79 42.3644C224.887 43.1169 223.382 43.4931 220.898 43.4931C219.544 43.4931 218.49 43.4179 217.812 43.3427V31.1526Z" fill="#F3F2F2"/>
<path d="M229.553 34.3887H232.338V43.4936H229.553V34.3887ZM230.983 33.1847C230.005 33.1847 229.402 32.5075 229.402 31.6798C229.402 30.852 230.005 30.1748 230.983 30.1748C231.962 30.1748 232.564 30.852 232.564 31.6798C232.564 32.5075 231.962 33.1847 230.983 33.1847Z" fill="#F3F2F2"/>
<path d="M241.067 38.0759C241.067 37.9254 241.067 37.6997 240.992 37.5492C240.766 36.7967 240.239 36.27 239.487 36.27C238.433 36.27 237.605 37.1729 237.605 38.8284C237.605 40.1828 238.282 41.2363 239.411 41.2363C240.164 41.2363 240.691 40.7848 240.917 40.1076C240.992 39.8818 240.992 39.5809 240.992 39.3551V38.0759H241.067ZM243.852 42.2145C243.852 43.9452 243.476 45.3749 242.497 46.3531C241.519 47.1809 240.164 47.4818 238.809 47.4818C237.605 47.4818 236.401 47.2561 235.573 46.8046L236.1 44.6224C236.702 44.9234 237.68 45.2997 238.734 45.2997C240.089 45.2997 241.067 44.6224 241.067 42.8917V42.2898C240.54 43.0422 239.637 43.4937 238.659 43.4937C236.401 43.4937 234.82 41.6878 234.82 39.0541C234.82 36.1195 236.702 34.2383 238.96 34.2383C240.164 34.2383 240.992 34.765 241.443 35.5175L241.519 34.464H243.927C243.852 35.066 243.852 35.8185 243.852 37.1729V42.2145Z" fill="#F3F2F2"/>
<path d="M251.531 40.6338C252.283 41.01 253.488 41.3863 254.692 41.3863C255.971 41.3863 256.649 40.8595 256.649 40.0318C256.649 39.2793 256.047 38.8279 254.541 38.3011C252.434 37.5486 251.079 36.4199 251.079 34.5387C251.079 32.3566 252.885 30.7764 255.821 30.7764C257.251 30.7764 258.229 31.0774 258.982 31.3783L258.38 33.6358C257.928 33.41 257.025 33.0338 255.821 33.0338C254.617 33.0338 254.014 33.6358 254.014 34.2378C254.014 35.0655 254.692 35.3665 256.348 36.0437C258.53 36.8714 259.584 38.0001 259.584 39.8061C259.584 41.913 258.003 43.7189 254.541 43.7189C253.111 43.7189 251.681 43.3427 251.004 42.9665L251.531 40.6338Z" fill="#F3F2F2"/>
<path d="M261.913 34.3887H264.699V43.4936H261.913V34.3887ZM263.268 33.1847C262.29 33.1847 261.688 32.5075 261.688 31.6798C261.688 30.852 262.29 30.1748 263.268 30.1748C264.247 30.1748 264.849 30.852 264.849 31.6798C264.924 32.5075 264.322 33.1847 263.268 33.1847Z" fill="#F3F2F2"/>
<path d="M267.639 41.0858C268.166 41.3868 269.22 41.763 270.048 41.763C270.876 41.763 271.252 41.462 271.252 41.0106C271.252 40.5591 270.951 40.3333 269.973 39.9571C268.091 39.3551 267.338 38.3016 267.413 37.2482C267.413 35.5175 268.844 34.2383 271.102 34.2383C272.156 34.2383 273.059 34.464 273.661 34.765L273.21 36.7214C272.833 36.4957 272.005 36.1947 271.252 36.1947C270.575 36.1947 270.199 36.4957 270.199 36.9472C270.199 37.3987 270.575 37.6244 271.629 38.0007C273.36 38.6026 274.038 39.5056 274.038 40.7848C274.038 42.5155 272.758 43.7195 270.123 43.7195C268.919 43.7195 267.865 43.4185 267.188 43.0422L267.639 41.0858Z" fill="#F3F2F2"/>
<path d="M279.453 31.9048V34.388H281.486V36.4949H279.453V39.8058C279.453 40.9345 279.755 41.386 280.583 41.386C280.959 41.386 281.185 41.386 281.411 41.3107V43.4929C281.034 43.6434 280.357 43.7186 279.604 43.7186C278.701 43.7186 277.948 43.4177 277.496 42.9662C276.969 42.4394 276.743 41.5365 276.743 40.2573V36.4949H275.539V34.388H276.743V32.6573L279.453 31.9048Z" fill="#F3F2F2"/>
<path d="M289.235 37.9245C289.235 37.2473 288.934 36.0433 287.654 36.0433C286.45 36.0433 285.999 37.172 285.923 37.9245H289.235ZM285.923 39.8057C285.999 41.0096 287.127 41.5364 288.482 41.5364C289.461 41.5364 290.213 41.3859 290.966 41.1601L291.342 43.1166C290.439 43.4928 289.31 43.7185 288.106 43.7185C285.02 43.7185 283.289 41.9126 283.289 39.0532C283.289 36.7205 284.719 34.1621 287.88 34.1621C290.815 34.1621 291.944 36.4948 291.944 38.7522C291.944 39.2037 291.869 39.6552 291.869 39.8809L285.923 39.8057Z" fill="#F3F2F2"/>
<path d="M294.278 37.3987C294.278 36.0442 294.278 35.1413 294.203 34.3888H296.612L296.687 36.1195H296.763C297.214 34.765 298.343 34.2383 299.171 34.2383C299.397 34.2383 299.548 34.2383 299.774 34.3135V36.9472C299.548 36.9472 299.322 36.8719 299.021 36.8719C297.967 36.8719 297.289 37.3987 297.064 38.3016C297.064 38.4521 296.988 38.6779 296.988 38.9036V43.4937H294.203L294.278 37.3987Z" fill="#F3F2F2"/>
<path d="M301.956 41.0858C302.482 41.3868 303.536 41.763 304.364 41.763C305.192 41.763 305.569 41.462 305.569 41.0106C305.569 40.5591 305.268 40.3333 304.289 39.9571C302.407 39.3551 301.654 38.3016 301.73 37.2482C301.73 35.5175 303.16 34.2383 305.418 34.2383C306.472 34.2383 307.376 34.464 307.978 34.765L307.526 36.7214C307.15 36.4957 306.322 36.1947 305.569 36.1947C304.891 36.1947 304.515 36.4957 304.515 36.9472C304.515 37.3987 304.891 37.6244 305.945 38.0007C307.677 38.6026 308.354 39.5056 308.354 40.7848C308.354 42.5155 307.074 43.7195 304.44 43.7195C303.235 43.7195 302.181 43.4185 301.504 43.0422L301.956 41.0858Z" fill="#F3F2F2"/>
<path d="M319.416 41.6869C320.545 41.6869 321.223 40.5581 321.223 38.978C321.223 37.6235 320.696 36.269 319.416 36.269C318.062 36.269 317.535 37.6235 317.535 38.978C317.61 40.4829 318.287 41.6869 319.416 41.6869ZM319.416 43.7185C316.782 43.7185 314.75 41.9879 314.75 38.978C314.75 36.0433 316.707 34.1621 319.567 34.1621C322.352 34.1621 324.158 36.1185 324.158 38.8275C324.158 42.2136 321.825 43.7185 319.416 43.7185Z" fill="#F3F2F2"/>
<path d="M326.943 43.4933V36.42H325.738V34.3131H326.943V33.9368C326.943 32.8081 327.244 31.6042 328.072 30.8517C328.825 30.1745 329.728 29.9487 330.556 29.9487C331.158 29.9487 331.61 30.024 332.062 30.0992L331.986 32.2814C331.76 32.2062 331.459 32.1309 331.083 32.1309C330.18 32.1309 329.803 32.8834 329.803 33.7864V34.2378H331.61V36.3448H329.803V43.4933H326.943Z" fill="#F3F2F2"/>
<path d="M341.015 36.4951H342.144C343.574 36.4951 344.402 35.8179 344.402 34.6892C344.402 33.5605 343.649 32.9585 342.295 32.9585C341.617 32.9585 341.241 33.0337 341.015 33.0337V36.4951ZM338.23 31.1526C339.134 31.0021 340.488 30.8516 341.994 30.8516C343.875 30.8516 345.155 31.1526 346.058 31.8298C346.81 32.4318 347.187 33.3347 347.187 34.4634C347.187 36.0436 346.058 37.1724 345.004 37.5486V37.6238C345.907 38.0001 346.359 38.8278 346.66 39.9565C347.036 41.3862 347.413 43.0417 347.638 43.4931H344.778C344.628 43.1169 344.252 42.1387 343.95 40.5585C343.574 38.9783 343.047 38.5268 341.918 38.5268H341.09V43.4931H338.306V31.1526H338.23Z" fill="#F3F2F2"/>
<path d="M358.256 40.558C358.256 41.762 358.256 42.7402 358.331 43.4926H355.923L355.772 42.2134H355.697C355.32 42.7402 354.493 43.7184 352.837 43.7184C350.955 43.7184 349.676 42.5897 349.676 39.7303V34.3877H352.46V39.2788C352.46 40.6332 352.912 41.3857 353.89 41.3857C354.643 41.3857 355.095 40.859 355.32 40.4075C355.396 40.257 355.396 40.0313 355.396 39.8055V34.3877H358.18V40.558H358.256Z" fill="#F3F2F2"/>
<path d="M361.19 41.0858C361.717 41.3868 362.771 41.763 363.599 41.763C364.427 41.763 364.803 41.462 364.803 41.0106C364.803 40.5591 364.502 40.3333 363.524 39.9571C361.642 39.3551 360.889 38.3016 360.964 37.2482C360.964 35.5175 362.394 34.2383 364.653 34.2383C365.707 34.2383 366.61 34.464 367.212 34.765L366.76 36.7214C366.384 36.4957 365.556 36.1947 364.803 36.1947C364.126 36.1947 363.749 36.4957 363.749 36.9472C363.749 37.3987 364.126 37.6244 365.18 38.0007C366.911 38.6026 367.589 39.5056 367.589 40.7848C367.589 42.5155 366.309 43.7195 363.674 43.7195C362.47 43.7195 361.416 43.4185 360.738 43.0422L361.19 41.0858Z" fill="#F3F2F2"/>
<path d="M369.764 41.0858C370.291 41.3868 371.345 41.763 372.173 41.763C373.001 41.763 373.377 41.462 373.377 41.0106C373.377 40.5591 373.076 40.3333 372.098 39.9571C370.216 39.3551 369.463 38.3016 369.538 37.2482C369.538 35.5175 370.969 34.2383 373.227 34.2383C374.281 34.2383 375.184 34.464 375.786 34.765L375.335 36.7214C374.958 36.4957 374.13 36.1947 373.377 36.1947C372.7 36.1947 372.324 36.4957 372.324 36.9472C372.324 37.3987 372.7 37.6244 373.754 38.0007C375.485 38.6026 376.163 39.5056 376.163 40.7848C376.163 42.5155 374.883 43.7195 372.248 43.7195C371.044 43.7195 369.99 43.4185 369.312 43.0422L369.764 41.0858Z" fill="#F3F2F2"/>
<path d="M378.498 34.3887H381.283V43.4936H378.498V34.3887ZM379.928 33.1847C378.95 33.1847 378.348 32.5075 378.348 31.6798C378.348 30.852 378.95 30.1748 379.928 30.1748C380.907 30.1748 381.509 30.852 381.509 31.6798C381.509 32.5075 380.907 33.1847 379.928 33.1847Z" fill="#F3F2F2"/>
<path d="M389.033 39.2046C387.528 39.2046 386.399 39.5809 386.399 40.6343C386.399 41.3868 386.85 41.6878 387.528 41.6878C388.205 41.6878 388.807 41.2363 388.958 40.6343C389.033 40.4838 389.033 40.3333 389.033 40.1828V39.2046ZM391.743 41.3115C391.743 42.1393 391.743 43.0422 391.894 43.4937H389.334L389.184 42.5908H389.109C388.506 43.3432 387.603 43.7195 386.549 43.7195C384.742 43.7195 383.613 42.365 383.613 40.9353C383.613 38.6026 385.721 37.4739 388.958 37.4739V37.3987C388.958 36.9472 388.732 36.1947 387.302 36.1947C386.399 36.1947 385.42 36.4957 384.818 36.8719L384.291 35.066C384.893 34.6898 386.173 34.2383 387.829 34.2383C390.84 34.2383 391.819 36.0442 391.819 38.1512V41.3115H391.743Z" fill="#F3F2F2"/>
<path d="M111.164 64.638C110.562 64.939 109.433 65.24 108.003 65.24C105.143 65.24 102.434 63.4341 102.434 59.145C102.434 55.6083 104.691 52.8994 108.455 52.8994C109.96 52.8994 110.863 53.2004 111.164 53.4261L110.863 54.1034C110.261 53.8024 109.433 53.5766 108.379 53.5766C105.218 53.5766 103.261 55.6836 103.261 59.145C103.261 62.3806 105.068 64.4875 108.304 64.4875C109.283 64.4875 110.261 64.2618 110.938 63.9608L111.164 64.638Z" fill="#F3F2F2"/>
<path d="M117.788 56.5117V57.2642H115.078V65.0147H114.25V57.2642H111.465V56.5117H117.788Z" fill="#F3F2F2"/>
<path d="M124.337 60.498C122.455 60.4227 120.046 60.7237 120.046 62.7554C120.046 63.9594 120.874 64.5614 121.702 64.5614C123.132 64.5614 123.885 63.6584 124.186 62.8307C124.261 62.6802 124.261 62.4544 124.261 62.3039V60.498H124.337ZM125.24 62.9812C125.24 63.6584 125.24 64.3356 125.39 65.0128H124.638L124.487 63.8089C124.035 64.4861 123.132 65.2386 121.777 65.2386C120.046 65.2386 119.293 64.0346 119.293 62.9059C119.293 60.9495 121.024 59.7455 124.412 59.8208V59.595C124.412 58.7673 124.261 57.1119 122.229 57.1119C121.476 57.1119 120.723 57.3376 120.121 57.7138L119.895 57.1119C120.648 56.5851 121.627 56.3594 122.379 56.3594C124.788 56.3594 125.315 58.1653 125.315 59.7455V62.9812H125.24Z" fill="#F3F2F2"/>
<path d="M129.083 61.703C129.083 61.9287 129.083 62.1545 129.158 62.3802C129.535 63.6594 130.664 64.5624 131.944 64.5624C133.901 64.5624 134.955 62.9822 134.955 60.7248C134.955 58.8436 133.901 57.1129 132.019 57.1129C130.814 57.1129 129.61 57.9406 129.234 59.3703C129.158 59.596 129.083 59.897 129.083 60.1228V61.703ZM128.255 59.2198C128.255 58.1663 128.255 57.3386 128.18 56.5109H129.008L129.083 58.0911C129.685 56.9624 130.739 56.2852 132.245 56.2852C134.428 56.2852 135.858 58.0911 135.858 60.5743C135.858 63.5842 134.051 65.1644 132.019 65.1644C130.814 65.1644 129.761 64.6376 129.158 63.5842V68.4753H128.33V59.2198H128.255Z" fill="#F3F2F2"/>
<path d="M139.234 56.5117V64.3375H142.696V56.5117H143.599V64.3375H146.986V56.5117H147.889V65.0147H138.406V56.5117H139.234Z" fill="#F3F2F2"/>
<path d="M151.802 56.5107V60.7246C151.802 62.0791 151.802 62.8315 151.726 64.1107C152.329 63.0573 152.63 62.4553 153.307 61.4018L156.544 56.5107H157.448V65.0137H156.619V60.7998C156.619 59.3701 156.619 58.5424 156.695 57.4137C156.017 58.6177 155.566 59.3701 154.963 60.2731C153.985 61.7028 152.856 63.3583 151.802 65.0137H150.898V56.5107H151.802Z" fill="#F3F2F2"/>
<path d="M166.254 60.0475C166.254 58.8435 165.802 57.0376 163.77 57.0376C161.888 57.0376 161.135 58.693 160.984 60.0475H166.254ZM160.909 60.7247C160.909 63.4336 162.415 64.4871 164.146 64.4871C165.35 64.4871 166.028 64.2613 166.48 64.0356L166.705 64.7128C166.404 64.8633 165.501 65.2396 164.071 65.2396C161.662 65.2396 160.156 63.4336 160.156 60.9504C160.156 58.091 161.737 56.3604 163.92 56.3604C166.705 56.3604 167.232 58.994 167.232 60.198C167.232 60.4237 167.232 60.5742 167.232 60.7247H160.909Z" fill="#F3F2F2"/>
<path d="M175.355 64.3369C175.732 64.4122 176.183 64.4122 176.786 64.4122C177.915 64.4122 179.044 64.0359 179.721 63.2835C180.173 62.7567 180.399 62.1548 180.399 61.2518C180.399 60.1231 179.947 59.3706 179.195 58.9191C178.517 58.4676 177.614 58.3171 176.635 58.3171C176.259 58.3171 175.657 58.3171 175.28 58.3924V64.3369H175.355ZM180.474 53.0498V53.727H175.431V57.7152C175.807 57.6399 176.56 57.6399 176.936 57.6399C177.99 57.6399 179.044 57.8656 179.797 58.3171C180.775 58.8439 181.378 59.8221 181.378 61.2518C181.378 62.3805 181.001 63.133 180.474 63.735C179.571 64.6379 178.141 65.0142 176.635 65.0142C175.732 65.0142 175.054 64.9389 174.527 64.9389V53.0498H180.474Z" fill="#F3F2F2"/>
<path d="M184.614 61.703C184.614 61.9287 184.614 62.1545 184.69 62.3802C185.066 63.6594 186.195 64.5624 187.475 64.5624C189.432 64.5624 190.486 62.9822 190.486 60.7248C190.486 58.8436 189.432 57.1129 187.55 57.1129C186.346 57.1129 185.141 57.9406 184.765 59.3703C184.69 59.596 184.614 59.897 184.614 60.1228V61.703ZM183.786 59.2198C183.786 58.1663 183.786 57.3386 183.711 56.5109H184.539L184.614 58.0911C185.216 56.9624 186.27 56.2852 187.776 56.2852C189.959 56.2852 191.389 58.0911 191.389 60.5743C191.389 63.5842 189.583 65.1644 187.55 65.1644C186.346 65.1644 185.292 64.6376 184.69 63.5842V68.4753H183.861V59.2198H183.786Z" fill="#F3F2F2"/>
<path d="M198.466 60.499C196.66 60.4237 194.176 60.7247 194.176 62.7564C194.176 63.9604 195.004 64.5623 195.832 64.5623C197.262 64.5623 198.015 63.6594 198.316 62.8316C198.391 62.6811 198.391 62.4554 198.391 62.3049V60.499H198.466ZM199.295 62.9821C199.295 63.6594 199.295 64.3366 199.445 65.0138H198.692L198.542 63.8099C198.09 64.4871 197.187 65.2396 195.832 65.2396C194.1 65.2396 193.348 64.0356 193.348 62.9069C193.348 60.9505 195.079 59.7465 198.466 59.8217V59.596C198.466 58.7683 198.316 57.1128 196.283 57.1128C195.531 57.1128 194.778 57.3386 194.176 57.7148L193.875 57.1128C194.627 56.5861 195.606 56.3604 196.359 56.3604C198.768 56.3604 199.295 58.1663 199.295 59.7465V62.9821Z" fill="#F3F2F2"/>
<path d="M207.351 56.5117V57.2642H204.641V65.0147H203.813V57.2642H201.027V56.5117H207.351Z" fill="#F3F2F2"/>
<path d="M210.285 64.4127C210.661 64.4127 211.038 64.488 211.565 64.488C212.92 64.488 214.651 64.0365 214.651 62.381C214.651 60.6503 212.845 60.2741 211.49 60.2741C211.038 60.2741 210.661 60.2741 210.21 60.3493V64.4127H210.285ZM210.285 56.5117V59.5969C210.661 59.5216 211.264 59.5216 211.715 59.5216C213.597 59.5216 215.554 60.1236 215.554 62.381C215.554 63.1335 215.253 63.6602 214.877 64.1117C214.049 64.9394 212.619 65.0899 211.414 65.0899C210.661 65.0899 209.984 65.0147 209.457 65.0147V56.5117H210.285Z" fill="#F3F2F2"/>
<path d="M222.552 57.189C222.1 57.1138 221.649 57.1138 221.046 57.1138C219.917 57.1138 218.337 57.4147 218.337 58.8444C218.337 60.1237 219.993 60.5751 220.971 60.5751H222.552V57.189ZM223.38 65.0147H222.552V61.1771H221.046C220.369 61.1771 219.917 61.3276 219.541 61.5534C218.788 62.0801 218.562 63.3593 218.186 64.2623C218.035 64.5633 217.96 64.789 217.81 64.9395H216.906C217.057 64.6385 217.283 64.3375 217.433 63.9613C217.885 63.0583 217.96 61.9296 218.863 61.2524C219.089 61.1019 219.39 60.9514 219.767 60.8761C218.562 60.7256 217.508 60.0484 217.508 58.7692C217.508 58.0167 217.885 57.4147 218.412 57.0385C219.089 56.587 219.993 56.4365 221.046 56.4365C221.875 56.4365 222.703 56.5118 223.455 56.587V65.0147H223.38Z" fill="#F3F2F2"/>
<path d="M239.492 64.638C238.89 64.939 237.761 65.24 236.331 65.24C233.471 65.24 230.762 63.4341 230.762 59.145C230.762 55.6083 233.02 52.8994 236.783 52.8994C238.288 52.8994 239.191 53.2004 239.492 53.4261L239.191 54.1034C238.589 53.8024 237.761 53.5766 236.707 53.5766C233.546 53.5766 231.59 55.6836 231.59 59.145C231.59 62.3806 233.396 64.4875 236.632 64.4875C237.611 64.4875 238.589 64.2618 239.266 63.9608L239.492 64.638Z" fill="#F3F2F2"/>
<path d="M246.034 56.5117V57.2642H243.324V65.0147H242.496V57.2642H239.711V56.5117H246.034Z" fill="#F3F2F2"/>
<path d="M252.658 60.499C250.776 60.4237 248.367 60.7247 248.367 62.7564C248.367 63.9604 249.195 64.5623 250.023 64.5623C251.453 64.5623 252.206 63.6594 252.507 62.8316C252.583 62.6811 252.583 62.4554 252.583 62.3049V60.499H252.658ZM253.486 62.9821C253.486 63.6594 253.486 64.3366 253.637 65.0138H252.884L252.733 63.8099C252.282 64.4871 251.378 65.2396 250.023 65.2396C248.292 65.2396 247.539 64.0356 247.539 62.9069C247.539 60.9505 249.27 59.7465 252.658 59.8217V59.596C252.658 58.7683 252.507 57.1128 250.475 57.1128C249.722 57.1128 248.969 57.3386 248.367 57.7148L248.066 57.1128C248.819 56.5861 249.797 56.3604 250.55 56.3604C252.959 56.3604 253.486 58.1663 253.486 59.7465V62.9821Z" fill="#F3F2F2"/>
<path d="M257.404 61.703C257.404 61.9287 257.404 62.1545 257.48 62.3802C257.856 63.6594 258.985 64.5624 260.265 64.5624C262.222 64.5624 263.276 62.9822 263.276 60.7248C263.276 58.8436 262.222 57.1129 260.34 57.1129C259.136 57.1129 257.931 57.9406 257.555 59.3703C257.48 59.596 257.404 59.897 257.404 60.1228V61.703ZM256.501 59.2198C256.501 58.1663 256.501 57.3386 256.426 56.5109H257.254L257.329 58.0911C257.931 56.9624 258.985 56.2852 260.491 56.2852C262.674 56.2852 264.104 58.0911 264.104 60.5743C264.104 63.5842 262.297 65.1644 260.265 65.1644C259.06 65.1644 258.007 64.6376 257.404 63.5842V68.4753H256.576V59.2198H256.501Z" fill="#F3F2F2"/>
<path d="M267.563 56.5117V64.3375H271.025V56.5117H271.853V64.3375H275.315V56.5117H276.143V65.0147H266.66V56.5117H267.563Z" fill="#F3F2F2"/>
<path d="M280.056 56.5117V60.7256C280.056 62.08 280.056 62.8325 279.98 64.1117C280.583 63.0583 280.884 62.4563 281.561 61.4028L284.798 56.5117H285.701V65.0147H284.873V60.8008C284.873 59.3711 284.873 58.5434 284.949 57.4147C284.271 58.6186 283.82 59.3711 283.217 60.2741C282.239 61.7038 281.11 63.3592 280.056 65.0147H279.152V56.5117H280.056Z" fill="#F3F2F2"/>
<path d="M294.508 60.0485C294.508 58.8445 294.056 57.0386 292.023 57.0386C290.142 57.0386 289.389 58.694 289.238 60.0485H294.508ZM289.163 60.7257C289.163 63.4346 290.668 64.4881 292.4 64.4881C293.604 64.4881 294.282 64.2623 294.733 64.0366L294.959 64.7138C294.658 64.8643 293.755 65.2405 292.325 65.2405C289.916 65.2405 288.41 63.4346 288.41 60.9514C288.41 58.092 289.991 56.3613 292.174 56.3613C294.959 56.3613 295.486 58.995 295.486 60.199C295.486 60.4247 295.486 60.5752 295.486 60.7257H289.163Z" fill="#F3F2F2"/>
<path d="M310.836 64.638C310.234 64.939 309.105 65.24 307.675 65.24C304.815 65.24 302.105 63.4341 302.105 59.145C302.105 55.6083 304.363 52.8994 308.126 52.8994C309.632 52.8994 310.535 53.2004 310.836 53.4261L310.535 54.1034C309.933 53.8024 309.105 53.5766 308.051 53.5766C304.89 53.5766 302.933 55.6836 302.933 59.145C302.933 62.3806 304.74 64.4875 307.976 64.4875C308.954 64.4875 309.933 64.2618 310.61 63.9608L310.836 64.638Z" fill="#F3F2F2"/>
<path d="M318.516 60.0485C318.516 58.8445 318.065 57.0386 316.032 57.0386C314.15 57.0386 313.398 58.694 313.247 60.0485H318.516ZM313.097 60.7257C313.097 63.4346 314.602 64.4881 316.333 64.4881C317.538 64.4881 318.215 64.2623 318.667 64.0366L318.893 64.7138C318.592 64.8643 317.688 65.2405 316.258 65.2405C313.849 65.2405 312.344 63.4346 312.344 60.9514C312.344 58.092 313.925 56.3613 316.108 56.3613C318.893 56.3613 319.42 58.995 319.42 60.199C319.42 60.4247 319.42 60.5752 319.42 60.7257H313.097Z" fill="#F3F2F2"/>
<path d="M327.92 64.6376C327.544 64.7881 326.64 65.1644 325.436 65.1644C323.027 65.1644 321.371 63.3584 321.371 60.8C321.371 58.0911 323.178 56.2852 325.737 56.2852C326.791 56.2852 327.619 56.5861 327.92 56.8119L327.619 57.4891C327.243 57.2634 326.565 56.9624 325.662 56.9624C323.404 56.9624 322.274 58.6931 322.274 60.7248C322.274 62.9822 323.629 64.4119 325.587 64.4119C326.565 64.4119 327.243 64.1109 327.694 63.8852L327.92 64.6376Z" fill="#F3F2F2"/>
<path d="M335.976 56.5117V57.2642H333.19V65.0147H332.362V57.2642H329.652V56.5117H335.976Z" fill="#F3F2F2"/>
<path d="M338.907 61.703C338.907 61.9287 338.907 62.1545 338.982 62.3802C339.359 63.6594 340.488 64.5624 341.768 64.5624C343.725 64.5624 344.779 62.9822 344.779 60.7248C344.779 58.8436 343.725 57.1129 341.843 57.1129C340.639 57.1129 339.434 57.9406 339.058 59.3703C338.983 59.596 338.907 59.897 338.907 60.1228V61.703ZM338.079 59.2198C338.079 58.1663 338.079 57.3386 338.004 56.5109H338.832L338.907 58.0911C339.509 56.9624 340.563 56.2852 342.069 56.2852C344.252 56.2852 345.682 58.0911 345.682 60.5743C345.682 63.5842 343.876 65.1644 341.843 65.1644C340.639 65.1644 339.585 64.6376 338.982 63.5842V68.4753H338.154V59.2198H338.079Z" fill="#F3F2F2"/>
<path d="M355.997 65.0137H355.169V56.5107H355.997V65.0137ZM349.071 64.3365C349.448 64.4117 349.824 64.4117 350.276 64.4117C351.631 64.4117 353.136 63.8098 353.136 62.3048C353.136 60.6494 351.706 60.1979 350.351 60.1979C349.899 60.1979 349.448 60.1979 349.071 60.2731V64.3365ZM349.071 56.5107V59.5959C349.372 59.5206 349.899 59.5206 350.426 59.5206C352.233 59.5206 353.964 60.2731 353.964 62.3048C353.964 63.0573 353.663 63.6593 353.287 64.1107C352.459 64.9385 351.179 65.089 350.125 65.089C349.372 65.089 348.695 65.0137 348.168 65.0137V56.5107H349.071Z" fill="#F3F2F2"/>
<path d="M364.871 59.1439C365.247 59.2944 365.774 59.2944 366.377 59.2944C368.484 59.2944 369.764 58.241 369.764 56.3598C369.764 54.4786 368.409 53.6509 366.527 53.6509C365.774 53.6509 365.172 53.7261 364.871 53.8014V59.1439ZM364.043 53.1994C364.72 53.0489 365.624 52.9736 366.602 52.9736C368.033 52.9736 369.087 53.3499 369.764 53.9519C370.366 54.4786 370.667 55.3063 370.667 56.2845C370.667 57.338 370.366 58.0905 369.839 58.6924C369.087 59.5954 367.807 60.0469 366.377 60.0469C365.85 60.0469 365.323 60.0469 364.946 59.8964V65.0132H364.118V53.1994H364.043Z" fill="#F3F2F2"/>
<path d="M376.16 64.4861C377.892 64.4861 379.322 62.9059 379.322 60.7237C379.322 59.1435 378.494 57.0366 376.236 57.0366C374.053 57.0366 373.074 58.993 373.074 60.799C373.074 62.9059 374.429 64.4861 376.16 64.4861ZM376.085 65.2386C373.902 65.2386 372.246 63.5079 372.246 60.8742C372.246 57.9396 374.128 56.3594 376.236 56.3594C378.569 56.3594 380.15 58.1653 380.15 60.7237C380.15 63.8841 377.967 65.2386 376.085 65.2386Z" fill="#F3F2F2"/>
<path d="M388.658 64.6367C388.282 64.7871 387.379 65.1634 386.174 65.1634C383.765 65.1634 382.109 63.3574 382.109 60.799C382.109 58.0901 383.916 56.2842 386.475 56.2842C387.529 56.2842 388.357 56.5852 388.658 56.8109L388.357 57.4881C387.981 57.2624 387.304 56.9614 386.4 56.9614C384.142 56.9614 383.013 58.6921 383.013 60.7238C383.013 62.9812 384.368 64.4109 386.325 64.4109C387.304 64.4109 387.981 64.1099 388.433 63.8842L388.658 64.6367Z" fill="#F3F2F2"/>
<path d="M396.561 64.6367C396.184 64.7871 395.281 65.1634 394.077 65.1634C391.668 65.1634 390.012 63.3574 390.012 60.799C390.012 58.0901 391.818 56.2842 394.378 56.2842C395.432 56.2842 396.26 56.5852 396.561 56.8109L396.26 57.4881C395.883 57.2624 395.206 56.9614 394.303 56.9614C392.044 56.9614 390.915 58.6921 390.915 60.7238C390.915 62.9812 392.27 64.4109 394.227 64.4109C395.206 64.4109 395.883 64.1099 396.335 63.8842L396.561 64.6367Z" fill="#F3F2F2"/>
<path d="M399.724 56.5107V60.7246C399.724 62.0791 399.724 62.8315 399.648 64.1107C400.251 63.0573 400.552 62.4553 401.229 61.4018L404.466 56.5107H405.369V65.0137H404.541V60.7998C404.541 59.3701 404.541 58.5424 404.617 57.4137C403.939 58.6177 403.488 59.3701 402.885 60.2731C401.907 61.7028 400.778 63.3583 399.724 65.0137H398.82V56.5107H399.724Z" fill="#F3F2F2"/>
<path d="M409.353 56.5107V60.7246C409.353 62.0791 409.353 62.8315 409.277 64.1107C409.88 63.0573 410.181 62.4553 410.858 61.4018L414.095 56.5107H414.998V65.0137H414.17V60.7998C414.17 59.3701 414.17 58.5424 414.246 57.4137C413.568 58.6177 413.116 59.3701 412.514 60.2731C411.536 61.7028 410.406 63.3583 409.353 65.0137H408.449V56.5107H409.353Z" fill="#F3F2F2"/>
</svg>
